<?xml version="1.0" encoding="UTF-8" standalone="no"?>
<!-- Created with Inkscape (http://www.inkscape.org/) -->

<svg
   width="466.87753"
   height="123.77009"
   viewBox="0 0 123.52801 32.747502"
   version="1.1"
   id="svg1"
   xmlns="http://www.w3.org/2000/svg"
   xmlns:svg="http://www.w3.org/2000/svg">
  <defs
     id="defs1" />
  <g
     id="layer1"
     transform="translate(-79.830181,-53.218911)">
    <path
       id="text1"
       style="font-weight:800;font-size:45.1556px;font-family:Poppins;-inkscape-font-specification:'Poppins Ultra-Bold';fill:#ffffff;fill-opacity:1;stroke:#000000;stroke-width:0.1;stroke-dasharray:none"
       d="m 158.82989,85.916408 c -3.70276,0 -6.74324,-0.873008 -9.12143,-2.619025 -2.37819,-1.77612 -3.6576,-4.304834 -3.83823,-7.586141 h 9.43752 c 0.0903,1.113838 0.42146,1.926639 0.99343,2.438403 0.57197,0.511763 1.30951,0.767645 2.21262,0.767645 0.8128,0 1.47508,-0.195674 1.98685,-0.587023 0.54187,-0.421452 0.8128,-0.993423 0.8128,-1.715913 0,-0.933215 -0.4365,-1.655705 -1.30951,-2.167469 -0.87301,-0.511763 -2.28789,-1.083734 -4.24463,-1.715913 -2.07716,-0.692385 -3.76297,-1.354667 -5.05743,-1.986846 -1.26435,-0.662282 -2.37819,-1.61055 -3.34151,-2.844803 -0.93322,-1.264357 -1.39983,-2.90501 -1.39983,-4.92196 0,-2.047054 0.51176,-3.793071 1.53529,-5.23805 1.02353,-1.475083 2.43841,-2.588922 4.24463,-3.341515 1.80623,-0.752593 3.85328,-1.12889 6.14116,-1.12889 3.70276,0 6.65293,0.873008 8.8505,2.619025 2.22768,1.715913 3.41678,4.139263 3.56729,7.270052 h -9.61814 c -0.0301,-0.963319 -0.33117,-1.685809 -0.90311,-2.167469 -0.54187,-0.48166 -1.2493,-0.72249 -2.12231,-0.72249 -0.66229,0 -1.20416,0.195674 -1.62561,0.587023 -0.42145,0.391349 -0.63217,0.948268 -0.63217,1.670758 0,0.602075 0.22578,1.12889 0.67733,1.580446 0.48166,0.421452 1.06868,0.797749 1.76107,1.12889 0.69239,0.301037 1.71591,0.692386 3.07058,1.174045 2.01695,0.692386 3.67265,1.384772 4.96711,2.077158 1.32457,0.662282 2.45346,1.61055 3.38667,2.844803 0.96332,1.204149 1.44498,2.73944 1.44498,4.605871 0,1.896535 -0.48166,3.597396 -1.44498,5.102583 -0.93321,1.505187 -2.30293,2.694284 -4.10915,3.567293 -1.77613,0.873008 -3.88339,1.309512 -6.32179,1.309512 z M 203.3082,53.76562 v 31.834699 h -8.8505 V 72.821284 h -10.79219 v 12.779035 h -8.8505 V 53.76562 h 8.8505 V 65.731854 H 194.4577 V 53.76562 Z" />
  </g>
  <g
     id="layer3"
     transform="translate(-79.830181,-53.218911)">
    <path
       style="fill:#000000;fill-opacity:1;stroke:#ffffff;stroke-width:0.025;stroke-dasharray:none;stroke-opacity:1"
       d="M 142.4384,85.600317 130.92372,78.510888 H 142.4384 Z"
       id="path296" />
    <path
       style="fill:#000000;fill-opacity:1;stroke:#ffffff;stroke-width:0.025;stroke-dasharray:none;stroke-opacity:1"
       d="m 130.92372,78.510888 -8.8505,7.089429 h 20.36518 z"
       id="path297" />
    <path
       style="fill:#000000;fill-opacity:1;stroke:#ffffff;stroke-width:0.025;stroke-dasharray:none;stroke-opacity:1"
       d="m 130.92372,72.776127 10.16001,-6.728185 v 6.728185 z"
       id="path298" />
    <path
       style="fill:#000000;fill-opacity:1;stroke:#ffffff;stroke-width:0.025;stroke-dasharray:none;stroke-opacity:1"
       d="m 141.08373,66.047942 h -10.16001 v 6.728185 z"
       id="path299" />
    <path
       style="fill:#000000;fill-opacity:1;stroke:#ffffff;stroke-width:0.025;stroke-dasharray:none;stroke-opacity:1"
       d="m 130.92372,78.510886 -8.8505,-24.745267 v 31.834698 z"
       id="path300" />
    <path
       style="fill:#000000;fill-opacity:1;stroke:#ffffff;stroke-width:0.025;stroke-dasharray:none;stroke-opacity:1"
       d="m 130.92372,60.855047 -8.8505,-7.089428 8.8505,24.745267 z"
       id="path301" />
    <path
       style="fill:#000000;fill-opacity:1;stroke:#ffffff;stroke-width:0.025;stroke-dasharray:none;stroke-opacity:1"
       d="m 130.92372,60.855047 v -7.089428 h -8.8505 z"
       id="path302" />
    <path
       style="fill:#000000;fill-opacity:1;stroke:#ffffff;stroke-width:0.025;stroke-dasharray:none;stroke-opacity:1"
       d="m 130.92372,53.765619 11.51468,7.089428 v -7.089428 z"
       id="path303" />
    <path
       style="fill:#000000;fill-opacity:1;stroke:#ffffff;stroke-width:0.025;stroke-dasharray:none;stroke-opacity:1"
       d="m 130.92372,53.765619 v 7.089428 h 11.51468 z"
       id="path304" />
  </g>
  <g
     id="layer2"
     transform="translate(-79.830181,-53.218911)">
    <path
       style="fill:#000000;fill-opacity:1;stroke:#ffffff;stroke-width:0.025;stroke-dasharray:none;stroke-opacity:1"
       d="M 79.852757,85.600317 88.703255,67.899321 V 85.600317 Z"
       id="path285" />
    <path
       style="fill:#000000;fill-opacity:1;stroke:#ffffff;stroke-width:0.025;stroke-dasharray:none;stroke-opacity:1"
       d="m 88.703255,67.899319 -8.850498,-14.1337 v 31.834698 z"
       id="path286" />
    <path
       style="fill:#000000;fill-opacity:1;stroke:#ffffff;stroke-width:0.025;stroke-dasharray:none;stroke-opacity:1"
       d="m 98.547175,74.446883 9.618145,-6.412095 -6.0057,17.565529 z"
       id="path307" />
    <path
       style="fill:#000000;fill-opacity:1;stroke:#ffffff;stroke-width:0.025;stroke-dasharray:none;stroke-opacity:1"
       d="M 94.754103,85.600317 90.554634,53.765619 98.547173,74.446883 Z"
       id="path308" />
    <path
       style="fill:#000000;fill-opacity:1;stroke:#ffffff;stroke-width:0.025;stroke-dasharray:none;stroke-opacity:1"
       d="m 94.754101,85.600317 h 7.405519 L 98.547175,74.446883 Z"
       id="path309" />
    <path
       style="fill:#000000;fill-opacity:1;stroke:#ffffff;stroke-width:0.025;stroke-dasharray:none;stroke-opacity:1"
       d="M 108.16532,68.034788 106.3591,53.765619 98.547173,74.446883 Z"
       id="path310" />
    <path
       style="fill:#000000;fill-opacity:1;stroke:#ffffff;stroke-width:0.025;stroke-dasharray:none;stroke-opacity:1"
       d="M 88.703255,67.899321 90.554634,53.765619 H 79.852757 Z"
       id="path311" />
    <path
       style="fill:#000000;fill-opacity:1;stroke:#ffffff;stroke-width:0.025;stroke-dasharray:none;stroke-opacity:1"
       d="M 94.754101,85.600317 90.554632,53.765619 88.703255,67.899321 Z"
       id="path312" />
    <path
       style="fill:#000000;fill-opacity:1;stroke:#ffffff;stroke-width:0.025;stroke-dasharray:none;stroke-opacity:1"
       d="m 108.16532,68.034788 8.8505,-14.269169 H 106.3591 Z"
       id="path313" />
    <path
       style="fill:#000000;fill-opacity:1;stroke:#ffffff;stroke-width:0.025;stroke-dasharray:none;stroke-opacity:1"
       d="m 108.16532,68.034788 8.8505,17.565529 h -8.8505 z"
       id="path314" />
    <path
       style="fill:#000000;fill-opacity:1;stroke:#ffffff;stroke-width:0.025;stroke-dasharray:none;stroke-opacity:1"
       d="m 108.16532,68.034788 8.8505,-14.269169 v 31.834698 z"
       id="path315" />
  </g>
</svg>
